<mxfile host="app.diagrams.net" modified="2023-11-08T14:54:26.324Z" agent="Mozilla/5.0 (Windows NT 10.0; Win64; x64) AppleWebKit/537.36 (KHTML, like Gecko) Chrome/119.0.0.0 Safari/537.36" etag="B0IN1dLw6e7Bt4cbBbjo" version="22.0.8" type="github">
  <diagram name="Page-1" id="74e2e168-ea6b-b213-b513-2b3c1d86103e">
    <mxGraphModel dx="1311" dy="687" grid="1" gridSize="10" guides="1" tooltips="1" connect="1" arrows="1" fold="1" page="1" pageScale="1" pageWidth="1100" pageHeight="850" background="none" math="0" shadow="0">
      <root>
        <mxCell id="0" />
        <mxCell id="1" parent="0" />
        <mxCell id="frwr4MJD8rZcvQAvkq9S-1" value="" style="group" vertex="1" connectable="0" parent="1">
          <mxGeometry x="280" y="88" width="620" height="675" as="geometry" />
        </mxCell>
        <mxCell id="OW70eodI6QGYOFk5UgHM-4" value="开始" style="ellipse;whiteSpace=wrap;html=1;" parent="frwr4MJD8rZcvQAvkq9S-1" vertex="1">
          <mxGeometry x="25" width="110" height="60" as="geometry" />
        </mxCell>
        <mxCell id="OW70eodI6QGYOFk5UgHM-14" value="结束" style="ellipse;whiteSpace=wrap;html=1;" parent="frwr4MJD8rZcvQAvkq9S-1" vertex="1">
          <mxGeometry x="25" y="615" width="110" height="60" as="geometry" />
        </mxCell>
        <mxCell id="OW70eodI6QGYOFk5UgHM-17" style="edgeStyle=orthogonalEdgeStyle;rounded=0;orthogonalLoop=1;jettySize=auto;html=1;exitX=0.5;exitY=1;exitDx=0;exitDy=0;entryX=0.5;entryY=0;entryDx=0;entryDy=0;" parent="frwr4MJD8rZcvQAvkq9S-1" source="OW70eodI6QGYOFk5UgHM-8" target="OW70eodI6QGYOFk5UgHM-14" edge="1">
          <mxGeometry relative="1" as="geometry" />
        </mxCell>
        <mxCell id="OW70eodI6QGYOFk5UgHM-3" value="乡镇便民服务大厅、村居便民服务站均可受理" style="rounded=0;whiteSpace=wrap;html=1;" parent="frwr4MJD8rZcvQAvkq9S-1" vertex="1">
          <mxGeometry y="108" width="160" height="50" as="geometry" />
        </mxCell>
        <mxCell id="OW70eodI6QGYOFk5UgHM-9" style="edgeStyle=orthogonalEdgeStyle;rounded=0;orthogonalLoop=1;jettySize=auto;html=1;exitX=0.5;exitY=1;exitDx=0;exitDy=0;jumpSize=5;" parent="frwr4MJD8rZcvQAvkq9S-1" source="OW70eodI6QGYOFk5UgHM-4" target="OW70eodI6QGYOFk5UgHM-3" edge="1">
          <mxGeometry relative="1" as="geometry" />
        </mxCell>
        <mxCell id="OW70eodI6QGYOFk5UgHM-6" value="在荆州统一受理平台转诊备案收件" style="rounded=0;whiteSpace=wrap;html=1;" parent="frwr4MJD8rZcvQAvkq9S-1" vertex="1">
          <mxGeometry y="308" width="160" height="60" as="geometry" />
        </mxCell>
        <mxCell id="OW70eodI6QGYOFk5UgHM-12" style="edgeStyle=orthogonalEdgeStyle;rounded=0;orthogonalLoop=1;jettySize=auto;html=1;exitX=0.5;exitY=1;exitDx=0;exitDy=0;entryX=0.5;entryY=0;entryDx=0;entryDy=0;" parent="frwr4MJD8rZcvQAvkq9S-1" source="OW70eodI6QGYOFk5UgHM-6" target="OW70eodI6QGYOFk5UgHM-7" edge="1">
          <mxGeometry relative="1" as="geometry" />
        </mxCell>
        <mxCell id="OW70eodI6QGYOFk5UgHM-8" value="在荆州统一受理平台出件，并记录台账" style="rounded=0;whiteSpace=wrap;html=1;" parent="frwr4MJD8rZcvQAvkq9S-1" vertex="1">
          <mxGeometry y="513" width="160" height="60" as="geometry" />
        </mxCell>
        <mxCell id="fRFyi25Me6PVz4HwU8o--1" style="edgeStyle=orthogonalEdgeStyle;rounded=0;orthogonalLoop=1;jettySize=auto;html=1;exitX=0.5;exitY=1;exitDx=0;exitDy=0;entryX=0.5;entryY=0;entryDx=0;entryDy=0;" parent="frwr4MJD8rZcvQAvkq9S-1" source="OW70eodI6QGYOFk5UgHM-7" target="OW70eodI6QGYOFk5UgHM-8" edge="1">
          <mxGeometry relative="1" as="geometry" />
        </mxCell>
        <mxCell id="OW70eodI6QGYOFk5UgHM-7" value="乡镇医保窗口在医保专网审核备案信息" style="rounded=0;whiteSpace=wrap;html=1;" parent="frwr4MJD8rZcvQAvkq9S-1" vertex="1">
          <mxGeometry y="410" width="160" height="60" as="geometry" />
        </mxCell>
        <mxCell id="lUG8p1Q0JQ3GMxAp1ghk-3" value="&lt;div&gt;所需材料：&lt;/div&gt;&lt;div&gt;&lt;span style=&quot;white-space: pre;&quot;&gt; &lt;/span&gt;1、有效身份凭证（社会保障卡或医保电子凭证或身份证件或户口本）&lt;/div&gt;&lt;span style=&quot;white-space: pre;&quot;&gt; &lt;/span&gt;2、异地就医登记备案表&lt;br&gt;&lt;span style=&quot;white-space: pre;&quot;&gt; &lt;/span&gt;3、具有转诊资质的定点医疗机构开具的转诊转院证明材料" style="rounded=0;whiteSpace=wrap;html=1;align=left;" parent="frwr4MJD8rZcvQAvkq9S-1" vertex="1">
          <mxGeometry x="220" y="195" width="400" height="80" as="geometry" />
        </mxCell>
        <mxCell id="fRFyi25Me6PVz4HwU8o--7" style="edgeStyle=orthogonalEdgeStyle;rounded=0;orthogonalLoop=1;jettySize=auto;html=1;exitX=0.5;exitY=1;exitDx=0;exitDy=0;entryX=0.5;entryY=0;entryDx=0;entryDy=0;" parent="frwr4MJD8rZcvQAvkq9S-1" source="fRFyi25Me6PVz4HwU8o--3" target="OW70eodI6QGYOFk5UgHM-6" edge="1">
          <mxGeometry relative="1" as="geometry">
            <mxPoint x="80" y="285" as="targetPoint" />
          </mxGeometry>
        </mxCell>
        <mxCell id="fRFyi25Me6PVz4HwU8o--3" value="收集材料" style="rounded=0;whiteSpace=wrap;html=1;" parent="frwr4MJD8rZcvQAvkq9S-1" vertex="1">
          <mxGeometry y="205" width="160" height="60" as="geometry" />
        </mxCell>
        <mxCell id="fRFyi25Me6PVz4HwU8o--6" style="edgeStyle=orthogonalEdgeStyle;rounded=0;orthogonalLoop=1;jettySize=auto;html=1;exitX=0.5;exitY=1;exitDx=0;exitDy=0;entryX=0.5;entryY=0;entryDx=0;entryDy=0;" parent="frwr4MJD8rZcvQAvkq9S-1" source="OW70eodI6QGYOFk5UgHM-3" target="fRFyi25Me6PVz4HwU8o--3" edge="1">
          <mxGeometry relative="1" as="geometry" />
        </mxCell>
        <mxCell id="fRFyi25Me6PVz4HwU8o--4" style="edgeStyle=orthogonalEdgeStyle;rounded=0;orthogonalLoop=1;jettySize=auto;html=1;exitX=0;exitY=0.5;exitDx=0;exitDy=0;entryX=1;entryY=0.5;entryDx=0;entryDy=0;" parent="frwr4MJD8rZcvQAvkq9S-1" source="lUG8p1Q0JQ3GMxAp1ghk-3" target="fRFyi25Me6PVz4HwU8o--3" edge="1">
          <mxGeometry relative="1" as="geometry" />
        </mxCell>
      </root>
    </mxGraphModel>
  </diagram>
</mxfile>
